<svg xmlns="http://www.w3.org/2000/svg" xmlns:xlink="http://www.w3.org/1999/xlink" style="enable-background:new 0 0 1922 916.5" id="Layer_1" x="0" y="0" version="1.1" viewBox="0 0 1922 916.5" xml:space="preserve"><style type="text/css">.st0{fill:url(#SVGID_1_)}.st1{clip-path:url(#SVGID_3_)}.st2,.st3{enable-background:new}.st2{opacity:2.000000e-02;fill:#fff}.st3{fill:url(#SVGID_4_)}.st3,.st4{opacity:.1}.st10,.st11{enable-background:new}.st5{fill:url(#SVGID_5_)}.st5,.st6,.st7,.st8,.st9{opacity:.37;enable-background:new}.st6{fill:url(#SVGID_6_)}.st7{fill:url(#SVGID_7_)}.st8{fill:url(#SVGID_8_)}.st9{fill:url(#SVGID_9_)}.st10,.st11{opacity:.1;fill:url(#SVGID_10_)}.st11{fill:url(#SVGID_11_)}</style><g transform="translate(0 .001)"><linearGradient id="SVGID_1_" x1="0" x2="1922.044" y1="458.225" y2="458.225" gradientUnits="userSpaceOnUse"><stop style="stop-color:#171121" offset="0"/><stop style="stop-color:#352451" offset="1"/></linearGradient><path d="M0,703.1c0,0,172,168.7,225.4,208.8c8.5,5.8,20.1,4.4,23,4.4H1922V0H0V703.1z" class="st0"/><g><defs><path id="SVGID_2_" d="M0,703.1c0,0,172,168.7,225.4,208.8c8.5,5.8,20.1,4.4,23,4.4H1922V0H0V703.1z"/></defs><clipPath id="SVGID_3_"><use style="overflow:visible" xlink:href="#SVGID_2_"/></clipPath><g class="st1"><circle cx="1797.5" cy="459.5" r="486.5" class="st2"/><circle cx="1797.5" cy="459.5" r="416.5" class="st2"/><circle cx="1797.5" cy="459.5" r="335.5" class="st2"/><linearGradient id="SVGID_4_" x1="703.346" x2="704.033" y1="714.702" y2="713.968" gradientTransform="matrix(125.795 -130.139 -496.829 -480.245 266575.4375 435411.3438)" gradientUnits="userSpaceOnUse"><stop style="stop-color:#6240c8" offset="0"/><stop style="stop-color:#a145fe" offset="1"/></linearGradient><path d="M-179.5,566.9l125.8-130.1L443.1,917l-125.8,130.1L-179.5,566.9z" class="st3"/><g class="st4"><linearGradient id="SVGID_5_" x1="702.249" x2="697.853" y1="713.701" y2="714.379" gradientTransform="matrix(29.885 -30.917 -496.829 -480.245 334697 365574.8125)" gradientUnits="userSpaceOnUse"><stop style="stop-color:#6240c8" offset="0"/><stop style="stop-color:#a145fe" offset="1"/></linearGradient><path d="M340.5,666.4L340.5,666.4c8.3-8.5,21.9-8.8,30.4-0.5l465.9,450.4c8.5,8.3,8.8,21.9,0.5,30.4l0,0 c-8.3,8.5-21.9,8.8-30.4,0.5L341,696.8C332.4,688.6,332.2,675,340.5,666.4z" class="st5"/><linearGradient id="SVGID_6_" x1="702.249" x2="697.853" y1="714.886" y2="715.564" gradientTransform="matrix(29.885 -30.917 -219.295 -211.975 136501.9844 173540.3125)" gradientUnits="userSpaceOnUse"><stop style="stop-color:#6240c8" offset="0"/><stop style="stop-color:#a145fe" offset="1"/></linearGradient><path d="M304.5,176.4L304.5,176.4c8.3-8.5,21.9-8.8,30.4-0.5L523.2,358c8.5,8.3,8.8,21.9,0.5,30.4l0,0 c-8.3,8.5-21.9,8.8-30.4,0.5L305,206.8C296.4,198.6,296.2,185,304.5,176.4z" class="st6"/><linearGradient id="SVGID_7_" x1="702.249" x2="697.853" y1="714.886" y2="715.564" gradientTransform="matrix(29.885 -30.917 -219.295 -211.975 136726.9844 173828.3125)" gradientUnits="userSpaceOnUse"><stop style="stop-color:#6240c8" offset="0"/><stop style="stop-color:#a145fe" offset="1"/></linearGradient><path d="M529.5,464.4L529.5,464.4c8.3-8.5,21.9-8.8,30.4-0.5L748.2,646c8.5,8.3,8.8,21.9,0.5,30.4l0,0 c-8.3,8.5-21.9,8.8-30.4,0.5L530,494.8C521.4,486.6,521.2,473,529.5,464.4z" class="st7"/><linearGradient id="SVGID_8_" x1="702.249" x2="697.853" y1="714.886" y2="715.564" gradientTransform="matrix(29.885 -30.917 -219.295 -211.975 136129.9844 173527.3125)" gradientUnits="userSpaceOnUse"><stop style="stop-color:#6240c8" offset="0"/><stop style="stop-color:#a145fe" offset="1"/></linearGradient><path d="M-67.5,163.4L-67.5,163.4c8.3-8.5,21.9-8.8,30.4-0.5L151.2,345c8.5,8.3,8.8,21.9,0.5,30.4l0,0 c-8.3,8.5-21.9,8.8-30.4,0.5L-67,193.8C-75.6,185.6-75.8,172-67.5,163.4z" class="st8"/><linearGradient id="SVGID_9_" x1="702.249" x2="697.853" y1="715.235" y2="715.913" gradientTransform="matrix(29.885 -30.917 -188.378 -182.09 115071.2812 152811.4531)" gradientUnits="userSpaceOnUse"><stop style="stop-color:#6240c8" offset="0"/><stop style="stop-color:#a145fe" offset="1"/></linearGradient><path d="M948.5,785.4L948.5,785.4c8.3-8.5,21.9-8.8,30.4-0.5l157.5,152.2c8.5,8.3,8.8,21.9,0.5,30.4l0,0 c-8.3,8.5-21.9,8.8-30.4,0.5L949,815.8C940.4,807.6,940.2,794,948.5,785.4z" class="st9"/></g><linearGradient id="SVGID_10_" x1="702.281" x2="702.281" y1="714.921" y2="713.921" gradientTransform="matrix(219 0 0 -219 -153785 156458.7812)" gradientUnits="userSpaceOnUse"><stop style="stop-color:#6240c8" offset="0"/><stop style="stop-color:#a145fe" offset="1"/></linearGradient><circle cx="14.5" cy=".5" r="109.5" class="st10"/><linearGradient id="SVGID_11_" x1="702.281" x2="702.281" y1="714.921" y2="713.921" gradientTransform="matrix(219 0 0 -219 -153643 156403.7812)" gradientUnits="userSpaceOnUse"><stop style="stop-color:#6240c8" offset="0"/><stop style="stop-color:#a145fe" offset="1"/></linearGradient><circle cx="156.5" cy="-54.5" r="109.5" class="st11"/></g></g></g></svg>